HIERARCHY
ROOT joint_Root
{
	OFFSET 0.0 0.0 0.0
	CHANNELS 6 Xposition Yposition Zposition Zrotation Xrotation Yrotation 
	JOINT Hips
	{
		OFFSET -17.1583 93.1646 452.98
		CHANNELS 6 Xposition Yposition Zposition Zrotation Xrotation Yrotation 
		JOINT Spine
		{
			OFFSET 15.7357 0.0 0.0
			CHANNELS 6 Xposition Yposition Zposition Zrotation Xrotation Yrotation 
			JOINT Chest
			{
				OFFSET 8.98455 -0.406207 0.0
				CHANNELS 6 Xposition Yposition Zposition Zrotation Xrotation Yrotation 
				JOINT Neck
				{
					OFFSET 16.3773 0.0 0.0
					CHANNELS 6 Xposition Yposition Zposition Zrotation Xrotation Yrotation 
					JOINT Head
					{
						OFFSET 6.45672 0.0 0.0
						CHANNELS 6 Xposition Yposition Zposition Zrotation Xrotation Yrotation 
						End Site
						{
							OFFSET 0.0 0.0 0.0
						}
					}
				}
				JOINT Shoulder_L
				{
					OFFSET 12.9942 -0.242716 4.98039
					CHANNELS 6 Xposition Yposition Zposition Zrotation Xrotation Yrotation 
					JOINT UpperArm_L
					{
						OFFSET 5.34809 0.0 0.0
						CHANNELS 6 Xposition Yposition Zposition Zrotation Xrotation Yrotation 
						JOINT LowerArm_L
						{
							OFFSET 24.3286 1.87007e-05 0.0
							CHANNELS 6 Xposition Yposition Zposition Zrotation Xrotation Yrotation 
							JOINT Hand_L
							{
								OFFSET 22.2916 0.0 0.0
								CHANNELS 6 Xposition Yposition Zposition Zrotation Xrotation Yrotation 
								End Site
								{
									OFFSET 0.0 0.0 0.0
								}
							}
						}
					}
				}
				JOINT Shoulder_R
				{
					OFFSET 12.9945 -0.242716 -4.98039
					CHANNELS 6 Xposition Yposition Zposition Zrotation Xrotation Yrotation 
					JOINT UpperArm_R
					{
						OFFSET -5.34813 0.0 0.0
						CHANNELS 6 Xposition Yposition Zposition Zrotation Xrotation Yrotation 
						JOINT LowerArm_R
						{
							OFFSET -24.3289 0.000322201 0.0
							CHANNELS 6 Xposition Yposition Zposition Zrotation Xrotation Yrotation 
							JOINT Hand_R
							{
								OFFSET -22.2915 -0.000108084 0.0
								CHANNELS 6 Xposition Yposition Zposition Zrotation Xrotation Yrotation 
								End Site
								{
									OFFSET 0.0 0.0 0.0
								}
							}
						}
					}
				}
			}
		}
		JOINT UpperLeg_L
		{
			OFFSET -2.19248 -6.46944 0.0
			CHANNELS 6 Xposition Yposition Zposition Zrotation Xrotation Yrotation 
			JOINT LowerLeg_L
			{
				OFFSET 39.0811 0.0 -1.23785e-05
				CHANNELS 6 Xposition Yposition Zposition Zrotation Xrotation Yrotation 
				JOINT Foot_L
				{
					OFFSET 40.9854 0.0 -1.26872e-05
					CHANNELS 6 Xposition Yposition Zposition Zrotation Xrotation Yrotation 
					JOINT Toes_L
					{
						OFFSET 11.7543 0.0 0.0
						CHANNELS 6 Xposition Yposition Zposition Zrotation Xrotation Yrotation 
						End Site
						{
							OFFSET 0.0 0.0 0.0
						}
					}
				}
			}
		}
		JOINT UpperLeg_R
		{
			OFFSET -2.19251 6.46944 0.0
			CHANNELS 6 Xposition Yposition Zposition Zrotation Xrotation Yrotation 
			JOINT LowerLeg_R
			{
				OFFSET -39.0811 -0.00228153 -0.0401928
				CHANNELS 6 Xposition Yposition Zposition Zrotation Xrotation Yrotation 
				JOINT Foot_R
				{
					OFFSET -40.9854 0.0 0.0
					CHANNELS 6 Xposition Yposition Zposition Zrotation Xrotation Yrotation 
					JOINT Toes_R
					{
						OFFSET -11.7543 0.0 0.0
						CHANNELS 6 Xposition Yposition Zposition Zrotation Xrotation Yrotation 
						End Site
						{
							OFFSET 0.0 0.0 0.0
						}
					}
				}
			}
		}
	}
}
MOTION
Frames:	5
Frame Time:	0.0333333
0.000000 0.000000 0.000000 0.000000 0.000000 -0.000000 -3.286800 91.790100 0.633875 84.103400 1.835220 3.792610 15.735700 0.000005 -0.000001 68.006000 87.883300 -65.775900 8.984550 -0.406207 -0.000000 -3.802440 -1.809490 4.402200 16.377300 -0.000001 -0.000001 9.788700 -0.570291 -7.457300 6.456720 -0.000001 -0.000000 6.794710 -5.035390 -16.034100 12.994200 -0.242716 4.980390 -92.572500 6.877200 -69.433500 5.348090 -0.000007 -0.000001 -73.293300 9.502810 -5.653730 24.328600 0.000019 0.000005 45.228800 -45.816700 -125.428000 22.291600 -0.000001 0.000005 47.836600 4.908860 9.200460 12.994500 -0.242716 -4.980390 88.596900 4.098760 -71.084500 -5.348130 -0.000001 -0.000004 -71.982000 25.907700 -2.862140 -24.328900 0.000322 -0.000009 2.378350 8.409000 -15.862000 -22.291500 -0.000108 -0.000004 1.403930 5.215320 2.332180 -2.192480 -6.469440 -0.000000 -171.859000 6.285380 -3.699570 39.081100 -0.000007 -0.000012 0.360762 -0.669737 28.310500 40.985400 -0.000006 -0.000013 0.080401 8.339890 -77.190800 11.754300 -0.000000 0.000003 0.000121 0.165567 -9.861610 -2.192510 6.469440 -0.000001 -169.913000 6.604190 -176.330000 -39.081100 -0.002282 -0.040193 0.130464 -0.464106 15.319700 -40.985400 0.000008 0.000006 5.029320 -0.893796 -71.826600 -11.754300 -0.000006 -0.000006 -0.010056 0.271721 -5.533960
0.000000 0.000000 0.000000 0.000000 0.000000 -0.000000 -3.212290 91.800200 0.682298 84.140900 1.814480 3.783220 15.735700 0.000005 -0.000001 68.130900 87.880500 -65.905700 8.984550 -0.406207 -0.000000 -3.794070 -1.802350 4.392690 16.377300 -0.000001 -0.000001 9.786000 -0.593496 -7.398820 6.456720 -0.000001 -0.000000 6.793340 -5.043610 -16.006500 12.994200 -0.242716 4.980390 -92.580900 6.888940 -69.404000 5.348090 -0.000007 -0.000001 -73.246000 9.353020 -5.648560 24.328600 0.000019 0.000005 45.178000 -45.732500 -125.438000 22.291600 -0.000001 0.000005 47.885400 4.900060 9.376350 12.994500 -0.242716 -4.980390 88.584900 4.122210 -71.035300 -5.348130 -0.000001 -0.000004 -71.946100 26.055200 -2.825100 -24.328900 0.000322 -0.000009 2.346660 8.263470 -15.921000 -22.291500 -0.000108 -0.000004 1.443570 5.213830 2.370030 -2.192480 -6.469440 -0.000000 -171.965000 6.256580 -3.601750 39.081100 -0.000007 -0.000012 0.362984 -0.676866 28.204200 40.985400 -0.000006 -0.000013 0.206869 8.307970 -77.231300 11.754300 -0.000000 0.000003 -0.000059 0.168608 -9.738120 -2.192510 6.469440 -0.000001 -170.011000 6.485950 -176.315000 -39.081100 -0.002282 -0.040193 0.127955 -0.453976 15.350900 -40.985400 0.000008 0.000006 4.796310 -0.906454 -71.833300 -11.754300 -0.000006 -0.000006 -0.009860 0.270256 -5.593900
0.000000 0.000000 0.000000 0.000000 0.000000 -0.000000 -3.134080 91.811500 0.733260 84.221100 1.825380 3.738590 15.735700 0.000005 -0.000001 67.837800 87.877400 -65.621800 8.984550 -0.406207 -0.000000 -3.796180 -1.823920 4.373590 16.377300 -0.000001 -0.000001 9.811550 -0.595690 -7.404480 6.456720 -0.000001 -0.000000 6.759290 -5.032830 -15.961900 12.994200 -0.242716 4.980390 -92.576800 6.875250 -69.396300 5.348090 -0.000007 -0.000001 -73.297400 9.142860 -5.633800 24.328600 0.000019 0.000005 44.994100 -45.648700 -125.573000 22.291600 -0.000001 0.000005 47.941400 4.893920 9.498730 12.994500 -0.242716 -4.980390 88.586800 4.124860 -71.069600 -5.348130 -0.000001 -0.000004 -71.953400 25.959200 -2.752800 -24.328900 0.000322 -0.000009 2.392770 8.349480 -16.060400 -22.291500 -0.000108 -0.000004 1.429850 5.215860 2.318520 -2.192480 -6.469440 -0.000000 -172.101000 6.283830 -3.560920 39.081100 -0.000007 -0.000012 0.356964 -0.668796 28.091500 40.985400 -0.000006 -0.000013 0.166104 8.288880 -77.122800 11.754300 -0.000000 0.000003 -0.000040 0.168294 -9.750850 -2.192510 6.469440 -0.000001 -170.147000 6.428990 -176.330000 -39.081100 -0.002282 -0.040193 0.127097 -0.450458 15.363600 -40.985400 0.000008 0.000006 4.686940 -0.936416 -71.852800 -11.754300 -0.000006 -0.000006 -0.009820 0.269956 -5.606150
0.000000 0.000000 0.000000 0.000000 0.000000 -0.000000 -3.050470 91.832200 0.785601 84.284800 1.858150 3.684440 15.735700 0.000005 -0.000001 67.895400 87.890400 -65.693000 8.984550 -0.406207 -0.000000 -3.819220 -1.809240 4.346460 16.377300 -0.000001 -0.000001 9.843670 -0.668453 -7.327960 6.456720 -0.000001 -0.000000 6.708610 -5.033950 -15.984400 12.994200 -0.242716 4.980390 -92.571200 6.864660 -69.408600 5.348090 -0.000007 -0.000001 -73.299600 8.925580 -5.678300 24.328600 0.000019 0.000005 44.842000 -45.550300 -125.671000 22.291600 -0.000001 0.000005 47.738000 4.898540 9.406920 12.994500 -0.242716 -4.980390 88.574900 4.147140 -71.016200 -5.348130 -0.000001 -0.000004 -71.976300 25.960600 -2.675160 -24.328900 0.000322 -0.000009 2.407710 8.316100 -16.216500 -22.291500 -0.000108 -0.000004 1.516670 5.214920 2.342340 -2.192480 -6.469440 -0.000000 -172.216000 6.357100 -3.509220 39.081100 -0.000007 -0.000012 0.346666 -0.653926 27.930200 40.985400 -0.000006 -0.000013 0.140504 8.240680 -77.031700 11.754300 -0.000000 0.000003 0.000030 0.167118 -9.798620 -2.192510 6.469440 -0.000001 -170.286000 6.393440 -176.331000 -39.081100 -0.002282 -0.040193 0.120748 -0.428168 15.335600 -40.985400 0.000008 0.000006 4.395540 -0.934051 -71.841200 -11.754300 -0.000006 -0.000006 -0.009573 0.268087 -5.682600
0.000000 0.000000 0.000000 0.000000 0.000000 -0.000000 -2.970760 91.832400 0.839820 84.341800 1.912670 3.636880 15.735700 0.000005 -0.000001 67.650100 87.893700 -65.436000 8.984550 -0.406207 -0.000000 -3.831640 -1.824860 4.369130 16.377300 -0.000001 -0.000001 9.845670 -0.644985 -7.345080 6.456720 -0.000001 -0.000000 6.717650 -5.056490 -15.980400 12.994200 -0.242716 4.980390 -92.582200 6.891320 -69.400800 5.348090 -0.000007 -0.000001 -73.258600 8.805970 -5.728250 24.328600 0.000019 0.000005 44.793000 -45.400800 -125.648000 22.291600 -0.000001 0.000005 47.742200 4.903610 9.305680 12.994500 -0.242716 -4.980390 88.584500 4.112480 -70.988200 -5.348130 -0.000001 -0.000004 -71.977600 25.852400 -2.679600 -24.328900 0.000322 -0.000009 2.421250 8.316250 -16.302700 -22.291500 -0.000108 -0.000004 1.371710 5.216770 2.295320 -2.192480 -6.469440 -0.000000 -172.354000 6.394950 -3.484250 39.081100 -0.000007 -0.000012 0.354398 -0.670417 27.862800 40.985400 -0.000006 -0.000013 0.305187 8.182710 -77.052000 11.754300 -0.000000 0.000003 -0.000083 0.169018 -9.721460 -2.192510 6.469440 -0.000001 -170.356000 6.247570 -176.349000 -39.081100 -0.002282 -0.040193 0.123007 -0.436261 15.340400 -40.985400 0.000008 0.000006 4.410260 -1.102490 -71.857300 -11.754300 -0.000006 -0.000006 -0.009764 0.269532 -5.623480
